<?xml version="1.0" standalone="no"?><svg xmlns="http://www.w3.org/2000/svg" viewBox="0 0 1440 320"><path fill="#fee685" fill-opacity="1" d="M0,192L40,181.3C80,171,160,149,240,170.7C320,192,400,256,480,282.7C560,309,640,299,720,293.3C800,288,880,288,960,288C1040,288,1120,288,1200,272C1280,256,1360,224,1400,208L1440,192L1440,320L1400,320C1360,320,1280,320,1200,320C1120,320,1040,320,960,320C880,320,800,320,720,320C640,320,560,320,480,320C400,320,320,320,240,320C160,320,80,320,40,320L0,320Z"></path></svg>